# xmcd
#
# Track frame offsets:
#  150
#  11345
#  21337
#  31000
#  41010
#  50857
#  60670
#  73485
#  84350
#  96545
#  106625
#  116725
#  129145
#  140882
#  150610
#  162142
#  172759
#  191982
#  202365
#  214982
#  226942
#
# Disc length: 3238 seconds
#
# Revision: 0
# Processed by: cddbd v1.5.1PL2 Copyright (c) Steve Scherf et al.
# Submitted via: Collectorz.com_Music_Collector 6.9
#
DISCID=2d0ca415
DTITLE=Herbert Hunter - The Sound of a Crying Man
DYEAR=2001
DGENRE=R&B/Soul
TTITLE0=Happy Go Lucky
TTITLE1=Push Away From The Table
TTITLE2=Sound Of A Crying Man
TTITLE3=Isn't It Wonderful To Dream
TTITLE4=Love Has Taken Over Me
TTITLE5=Dr. Feelgood
TTITLE6=I Gotta Sit Down
TTITLE7=Twistin' USA
TTITLE8=Don't Pity Me
TTITLE9=I'm So Satisfied
TTITLE10=Slow Twistin'
TTITLE11=Make Me Know You Love Me
TTITLE12=Diddlin' and Daddlin'
TTITLE13=Twist
TTITLE14=La La La La
TTITLE15=Hold On
TTITLE16=Win Or Lose
TTITLE17=Clean With Your Dirty Work #1
TTITLE18=Things Are Never As Bad As They Seem
TTITLE19=These Are My People
TTITLE20=Clean With Your Dirty Work #2
EXTD=
EXTT0=
EXTT1=
EXTT2=
EXTT3=
EXTT4=
EXTT5=
EXTT6=
EXTT7=
EXTT8=
EXTT9=
EXTT10=
EXTT11=
EXTT12=
EXTT13=
EXTT14=
EXTT15=
EXTT16=
EXTT17=
EXTT18=
EXTT19=
EXTT20=
PLAYORDER=
